# Exported from Wings 3D 2.1.6
mtllib panel2.mtl
o Cube1
#8 vertices, 12 faces
v -1.00000000 -0.15800000 -1.00000000
v -1.00000000 -0.15800000 1.00000000
v -1.00000000 0.15800000 -1.00000000
v -1.00000000 0.15800000 1.00000000
v 1.00000000 -0.15800000 -1.00000000
v 1.00000000 -0.15800000 1.00000000
v 1.00000000 0.15800000 -1.00000000
v 1.00000000 0.15800000 1.00000000
vt -2.2696950e-3 1.5484516e-4
vt -2.2696950e-3 1.00234070
vt -1.5713177e-3 1.0004584e-3
vt -1.5713177e-3 1.00318631
vt 1.5280260e-2 0.24929031
vt 1.5280260e-2 0.20979031
vt 0.26528026 0.20979031
vt 0.26528026 0.24929031
vt 0.51528026 0.20979031
vt 0.51528026 0.24929031
vt 0.76528026 0.20979031
vt 0.76528026 0.24929031
vt 0.99991616 1.5484516e-4
vt 0.99991616 1.00234070
vt 1.00061454 1.0004584e-3
vt 1.00061454 1.00318631
vt 1.01528026 0.20979031
vt 1.01528026 0.24929031
vn -0.57735027 -0.57735027 -0.57735027
vn -0.57735027 -0.57735027 0.57735027
vn -0.57735027 0.57735027 -0.57735027
vn -0.57735027 0.57735027 0.57735027
vn 0.57735027 -0.57735027 -0.57735027
vn 0.57735027 -0.57735027 0.57735027
vn 0.57735027 0.57735027 -0.57735027
vn 0.57735027 0.57735027 0.57735027
g Cube1_Cube1_auv
usemtl Cube1_auv
s 1
f 1/1/1 5/13/5 2/2/2
f 2/5/2 3/7/3 1/8/1
f 2/2/2 5/13/5 6/14/6
f 2/18/2 8/11/8 4/17/4
f 3/7/3 5/10/5 1/8/1
f 3/4/3 8/15/8 7/16/7
f 4/6/4 3/7/3 2/5/2
f 4/3/4 8/15/8 3/4/3
f 5/10/5 8/11/8 6/12/6
f 6/12/6 8/11/8 2/18/2
f 7/9/7 5/10/5 3/7/3
f 7/9/7 8/11/8 5/10/5
