# Exported from Wings 3D 2.1.6
mtllib panel2.mtl
o Cube1
#8 vertices, 12 faces
v -1.00000000 -0.15800000 -1.00000000
v -1.00000000 -0.15800000 1.00000000
v -1.00000000 0.15800000 -1.00000000
v -1.00000000 0.15800000 1.00000000
v 1.00000000 -0.15800000 -1.00000000
v 1.00000000 -0.15800000 1.00000000
v 1.00000000 0.15800000 -1.00000000
v 1.00000000 0.15800000 1.00000000
vt -2.2696950e-3 1.5484516e-4
vt -2.2696950e-3 1.00234070
vt -1.5713177e-3 1.0004584e-3
vt -1.5713177e-3 1.00318631
vt 0.49928026 0.22890831
vt 0.49928026 0.23017231
vt 0.50728026 0.22890831
vt 0.50728026 0.23017231
vt 0.51528026 0.22890831
vt 0.51528026 0.23017231
vt 0.52328026 0.22890831
vt 0.52328026 0.23017231
vt 0.53128026 0.22890831
vt 0.53128026 0.23017231
vt 0.99991616 1.5484516e-4
vt 0.99991616 1.00234070
vt 1.00061454 1.0004584e-3
vt 1.00061454 1.00318631
vn -0.57735027 -0.57735027 -0.57735027
vn -0.57735027 -0.57735027 0.57735027
vn -0.57735027 0.57735027 -0.57735027
vn -0.57735027 0.57735027 0.57735027
vn 0.57735027 -0.57735027 -0.57735027
vn 0.57735027 -0.57735027 0.57735027
vn 0.57735027 0.57735027 -0.57735027
vn 0.57735027 0.57735027 0.57735027
g Cube1_Cube1_auv
usemtl Cube1_auv
s 1
f 1/1/1 5/15/5 2/2/2
f 2/6/2 3/7/3 1/8/1
f 2/6/2 4/5/4 3/7/3
f 2/14/2 8/11/8 4/13/4
f 3/7/3 5/10/5 1/8/1
f 3/7/3 7/9/7 5/10/5
f 3/4/3 8/17/8 7/18/7
f 4/3/4 8/17/8 3/4/3
f 5/15/5 6/16/6 2/2/2
f 5/10/5 8/11/8 6/12/6
f 6/12/6 8/11/8 2/14/2
f 7/9/7 8/11/8 5/10/5
